<?xml version="1.0" encoding="UTF-8" standalone="no"?>
<!-- Created with Inkscape (http://www.inkscape.org/) -->

<svg
   xmlns:dc="http://purl.org/dc/elements/1.1/"
   xmlns:cc="http://creativecommons.org/ns#"
   xmlns:rdf="http://www.w3.org/1999/02/22-rdf-syntax-ns#"
   xmlns:svg="http://www.w3.org/2000/svg"
   xmlns="http://www.w3.org/2000/svg"
   xmlns:xlink="http://www.w3.org/1999/xlink"
   xmlns:sodipodi="http://sodipodi.sourceforge.net/DTD/sodipodi-0.dtd"
   xmlns:inkscape="http://www.inkscape.org/namespaces/inkscape"
   width="289.14517"
   height="166.70941"
   viewBox="0 0 76.5 44.11"
   version="1.1"
   id="svg5477"
   inkscape:version="0.92.0 r15299"
   sodipodi:docname="Logo_dark_web.svg">
  <defs
     id="defs5471">
    <linearGradient
       inkscape:collect="always"
       xlink:href="#linearGradient5027"
       id="linearGradient5391"
       gradientUnits="userSpaceOnUse"
       gradientTransform="matrix(0.9830506,0,0,0.9830506,-196.64606,-145.25015)"
       x1="251.05711"
       y1="394.76248"
       x2="216.86894"
       y2="439.85086" />
    <linearGradient
       id="linearGradient5027"
       inkscape:collect="always">
      <stop
         id="stop5021"
         offset="0"
         style="stop-color:#da2e0e;stop-opacity:1" />
      <stop
         style="stop-color:#f5d937;stop-opacity:1"
         offset="0.49110496"
         id="stop5023" />
      <stop
         id="stop5025"
         offset="1"
         style="stop-color:#0b97ff;stop-opacity:1" />
    </linearGradient>
  </defs>
  <sodipodi:namedview
     id="base"
     pagecolor="#ffffff"
     bordercolor="#666666"
     borderopacity="1.0"
     inkscape:pageopacity="0.0"
     inkscape:pageshadow="2"
     inkscape:zoom="3.959798"
     inkscape:cx="133.18461"
     inkscape:cy="91.136892"
     inkscape:document-units="mm"
     inkscape:current-layer="text5389"
     showgrid="false"
     units="px"
     inkscape:window-width="2560"
     inkscape:window-height="1377"
     inkscape:window-x="-8"
     inkscape:window-y="-8"
     inkscape:window-maximized="1"
     fit-margin-top="0"
     fit-margin-left="0"
     fit-margin-right="0"
     fit-margin-bottom="0"
     viewbox-width="76.5" />
  <metadata
     id="metadata5474">
    <rdf:RDF>
      <cc:Work
         rdf:about="">
        <dc:format>image/svg+xml</dc:format>
        <dc:type
           rdf:resource="http://purl.org/dc/dcmitype/StillImage" />
        <dc:title></dc:title>
      </cc:Work>
    </rdf:RDF>
  </metadata>
  <g
     inkscape:label="Layer 1"
     inkscape:groupmode="layer"
     id="layer1"
     transform="translate(5.1100746,-242.87338)">
    <path
       style="fill:url(#linearGradient5391);fill-opacity:1;stroke:none;stroke-width:1;stroke-opacity:1"
       d="m 42.796267,242.92041 c -2.946596,0.37259 -5.138542,2.39563 -5.910903,5.65975 -2.36597,1.01985 -5.454306,2.97818 -6.695504,5.05965 -4.64893,3.27952 -7.474754,6.98692 -10.016466,11.21244 0.697611,0.82877 1.659078,-0.67092 1.898912,-1.13281 2.311477,-3.26589 6.85804,-9.23669 10.683986,-9.69292 0.49312,-0.0945 0.791951,-0.46973 0.662848,-0.78768 -0.190008,-0.46793 -0.9144,-0.25694 -1.50758,-0.15097 1.062556,-1.56361 4.656161,-3.43469 6.052642,-3.63066 0.584362,-0.0669 0.741043,-0.1451 0.859711,-0.42908 0.153427,-0.49103 -0.318841,-0.67828 -0.681733,-0.73609 -0.02371,-0.0384 0.05799,-0.37786 0.14483,-0.60088 0.961819,-2.28689 2.755913,-3.86732 5.261377,-3.84207 2.505456,0.0253 4.435734,1.70059 4.858316,3.07018 0.173332,0.58218 1.250635,0.81435 0.805487,-0.82154 -0.445151,-1.63589 -3.469325,-3.54992 -6.415923,-3.17732 z m 6.347296,5.2928 c -0.08929,0.38141 -0.06462,0.65198 -0.259607,0.97218 -0.212942,-0.37325 -0.403942,-0.82902 -0.791535,-0.88744 -0.730496,0.14958 -1.352021,0.67169 -1.99212,1.09968 -0.559273,0.34334 -0.42423,1.0454 0.136737,1.10044 0.759846,-0.12478 0.88093,-0.51528 1.539925,-0.80656 0.489001,0.55602 0.847196,1.32849 1.45134,1.17695 0.590437,-0.1481 0.745845,-1.42525 0.975265,-2.27138 0.194808,-0.79673 -0.834721,-0.94629 -1.060005,-0.38387 z m -4.203026,3.30788 c 2.240042,5.85995 -0.05203,10.11523 -3.396107,12.7593 -1.496859,1.04477 0.557668,1.10143 1.33463,0.51575 3.746696,-2.7354 4.93485,-7.72457 3.908372,-11.93387 -0.194389,-0.783 -0.3708,-1.15904 -0.679455,-1.44787 -0.360312,-0.33604 -1.010891,-0.42624 -1.16744,0.10669 z m -6.239444,2.46533 c -1.836639,4.99759 -4.302783,7.30927 -7.546347,10.29881 -1.305796,1.36008 0.836062,0.90732 1.699008,0.0485 2.582289,-2.63424 5.695072,-5.91827 6.894629,-9.77343 0.214797,-0.7516 -0.701794,-1.25866 -1.04729,-0.5739 z m 0.232262,3.39452 c -1.458206,2.86041 -3.138064,4.76394 -4.575109,7.6257 -0.389368,2.22083 4.653246,-4.86637 5.409018,-6.59957 0.784333,-1.49818 -0.35011,-2.4164 -0.833909,-1.02613 z m -22.134081,19.59212 c 0.218912,0.5329 0.505487,0.97356 1.006465,0.91428 0.246043,-0.0684 0.410581,-0.37263 0.341263,-0.63053 -0.776381,-1.07165 -0.217235,-1.67037 -0.563491,-2.13018 -0.346257,-0.45981 -0.968199,0.67085 -0.78423,1.84669 z m 4.443762,-1.90777 c -0.725353,0.32267 -1.488854,1.33726 -2.150427,1.35504 -0.37909,-0.0123 -0.599716,0.17346 -0.599716,0.50112 0.113153,0.66005 0.722066,0.80561 1.280705,0.56925 0.919609,-0.37879 1.99321,-1.35265 2.907295,-2.0472 1.742829,-0.98232 -1.104876,-0.61519 -1.437857,-0.37824 z m 2.203585,0.0709 c -0.58995,0.55246 -1.769817,1.1764 -1.720959,1.61119 0.85802,1.14112 2.808447,-1.03727 3.549386,-1.68553 0.710332,-0.58788 -1.461397,-0.20555 -1.828427,0.0743 z m 2.255205,0.26538 c -1.902127,3.16605 -3.215256,6.84368 -2.426605,9.98759 0.761405,2.21848 2.433661,2.00782 2.591842,0.059 0.12727,-0.85033 0.02788,-1.46451 0.328174,-2.23709 0.315838,0.33864 0.643535,0.86133 1.125865,0.64364 0.275932,-0.13371 0.597107,-0.53798 0.794999,-1.00107 0.568651,-1.42199 0.818949,-2.83541 1.312675,-4.04818 0.55187,0.0647 0.916546,-0.24221 1.106223,-0.64016 0.436745,-0.98725 0.962218,-1.97328 1.497563,-2.88535 0.130357,-2.2911 -1.762202,1.13977 -1.968249,1.60387 -0.694018,1.74105 -0.347403,-0.58163 -1.042109,0.30991 -0.694703,0.89155 -1.268466,5.06416 -1.887143,5.24893 -0.342284,0.0212 -0.102182,-2.73409 -1.081093,-1.98912 -0.823656,0.65616 -0.618014,6.37382 -1.701525,4.78987 -0.85671,-1.36006 -0.340876,-5.40538 2.805732,-10.06207 0.703164,-0.70179 -0.963118,-0.52924 -1.456349,0.2203 z"
       id="path5385"
       inkscape:connector-curvature="0"
       sodipodi:nodetypes="cccccccacccszczcscccccccsccccccccccccccccccccccccccccccccczcccccccccccczcaz" />
    <g
       aria-label="Sun Conure Software"
       style="font-style:normal;font-variant:normal;font-weight:900;font-stretch:normal;font-size:7.88838053px;line-height:4.93023825px;font-family:'Arima Madurai';-inkscape-font-specification:'Arima Madurai Heavy';text-align:center;letter-spacing:0px;word-spacing:0px;text-anchor:middle;fill:#181a1b;fill-opacity:1;stroke:none;stroke-width:2;stroke-miterlimit:4;stroke-dasharray:none;stroke-opacity:1"
       id="text5389">
      <path
         d="m -3.2405284,272.09913 q -0.9229406,0 -1.3962434,-0.30765 -0.4733028,-0.31553 -0.4733028,-0.8125 0,-0.25243 0.1498792,-0.4102 0.1498792,-0.16565 0.4890796,-0.16565 0.1419908,0 0.228763,0.0158 -0.023665,0.10254 -0.023665,0.21298 0,0.0789 0.015777,0.18932 0.055219,0.37864 0.3470887,0.63896 0.2918701,0.26032 0.8125032,0.26032 0.3865306,0 0.6389588,-0.2051 0.2524282,-0.21299 0.2524282,-0.61529 0,-0.37865 -0.2524282,-0.63107 -0.2445398,-0.26032 -0.8519451,-0.59952 -0.5758518,-0.33131 -0.9071637,-0.57585 -0.331312,-0.25243 -0.5206332,-0.56797 -0.1814327,-0.32342 -0.1814327,-0.75728 0,-0.70996 0.5206331,-1.04916 0.5285215,-0.34708 1.3410247,-0.34708 0.7572845,0 1.2148106,0.23665 0.4575261,0.23665 0.4575261,0.68629 0,0.21298 -0.1262141,0.34709 -0.1183257,0.12621 -0.4023074,0.1341 -0.031554,0.008 -0.1104374,0.008 -0.070995,0 -0.1814327,-0.0158 0.015777,-0.26032 -0.063107,-0.45753 -0.063107,-0.26031 -0.29187,-0.41808 -0.2287631,-0.16566 -0.6152937,-0.16566 -0.3155352,0 -0.5521867,0.15777 -0.228763,0.15777 -0.228763,0.52063 0,0.25243 0.1104373,0.44964 0.1104374,0.19721 0.3707539,0.39442 0.2603166,0.19721 0.7415078,0.46541 0.4733028,0.26032 0.788838,0.49697 0.3155353,0.22877 0.5285215,0.56008 0.2129863,0.33131 0.2129863,0.77306 0,0.43386 -0.228763,0.78884 -0.2208747,0.34709 -0.6862891,0.56007 -0.4575261,0.2051 -1.1280384,0.2051 z"
         style="font-style:normal;font-variant:normal;font-weight:900;font-stretch:normal;font-family:'Arima Madurai';-inkscape-font-specification:'Arima Madurai Heavy';fill:#ffffff;fill-opacity:1;stroke:none;stroke-width:2;stroke-miterlimit:4;stroke-dasharray:none;stroke-opacity:1"
         id="path6090" />
      <path
         d="m 3.4441346,271.2393 q 0.1025489,0.14988 0.1025489,0.31553 0,0.24454 -0.165656,0.38653 -0.1577676,0.14199 -0.4575261,0.14199 -0.3549771,0 -0.5679634,-0.22876 -0.2050978,-0.22876 -0.2208746,-0.68629 -0.331312,0.93083 -1.28580604,0.93083 -0.6468472,0 -0.94660566,-0.37075 -0.29975846,-0.37076 -0.29975846,-1.23059 v -1.46724 q 0,-0.59952 -0.14987923,-1.00182 0.27609332,-0.22877 0.58374016,-0.22877 0.26031656,0 0.41808417,0.14199 0.16565599,0.14199 0.16565599,0.39442 l 0.007888,2.00365 q 0,0.6784 0.11832571,0.97816 0.11832571,0.29976 0.44174928,0.29976 0.3786423,0 0.6074053,-0.4733 0.2287631,-0.47331 0.2287631,-1.37258 0,-0.86772 -0.023665,-1.15959 -0.023665,-0.29976 -0.1498792,-0.59163 0.086772,-0.0789 0.2366514,-0.14988 0.1577676,-0.071 0.3470888,-0.071 0.2524281,0 0.4180841,0.15777 0.1735444,0.15777 0.1735444,0.42597 l 0.00789,2.53217 q 0,0.22088 0.04733,0.31554 0.04733,0.0947 0.1577676,0.0947 0.1341024,0 0.2050979,-0.0868 z"
         style="font-style:normal;font-variant:normal;font-weight:900;font-stretch:normal;font-family:'Arima Madurai';-inkscape-font-specification:'Arima Madurai Heavy';fill:#ffffff;fill-opacity:1;stroke:none;stroke-width:2;stroke-miterlimit:4;stroke-dasharray:none;stroke-opacity:1"
         id="path6092" />
      <path
         d="m 7.775472,270.86854 q 0.023665,0.65474 0.1577676,0.99394 -0.2603166,0.22876 -0.5916286,0.22876 -0.2524282,0 -0.4180841,-0.14199 -0.165656,-0.14199 -0.165656,-0.38653 v -2.01154 q -0.00789,-0.63896 -0.1341025,-0.93871 -0.1262141,-0.29976 -0.4654145,-0.29976 -0.3786422,0 -0.6152936,0.46541 -0.2366515,0.45753 -0.2366515,1.34103 0,0.86772 0.023665,1.16748 0.023665,0.29187 0.1419908,0.58374 -0.078884,0.0789 -0.2366514,0.14988 -0.1498792,0.071 -0.3392003,0.071 -0.268205,0 -0.433861,-0.15777 -0.165656,-0.15776 -0.165656,-0.41808 v -2.53217 q -0.00789,-0.22087 -0.055219,-0.31554 -0.04733,-0.10254 -0.1577676,-0.10254 -0.1498793,0 -0.2050979,0.0947 -0.094661,-0.15777 -0.094661,-0.32343 0,-0.23665 0.1577676,-0.37864 0.165656,-0.14988 0.4575261,-0.14988 0.3628655,0 0.5679634,0.23665 0.2129863,0.22877 0.2208746,0.69418 0.3392004,-0.93872 1.3173596,-0.93872 0.6468472,0 0.954494,0.40231 0.3155353,0.39442 0.3155353,1.19115 z"
         style="font-style:normal;font-variant:normal;font-weight:900;font-stretch:normal;font-family:'Arima Madurai';-inkscape-font-specification:'Arima Madurai Heavy';fill:#ffffff;fill-opacity:1;stroke:none;stroke-width:2;stroke-miterlimit:4;stroke-dasharray:none;stroke-opacity:1"
         id="path6094" />
      <path
         d="m 12.561993,272.09124 q -1.049155,0 -1.632895,-0.74939 -0.575852,-0.7494 -0.575852,-2.11409 0,-1.36469 0.599517,-2.1062 0.599517,-0.74939 1.680225,-0.74939 0.44175,0 0.844057,0.11043 0.402308,0.11044 0.654736,0.32343 0.260316,0.21298 0.260316,0.49696 0,0.24454 -0.220874,0.42598 -0.220875,0.17354 -0.607406,0.16565 -0.118325,-1.16748 -0.915052,-1.16748 -0.591628,0 -0.87561,0.62319 -0.283982,0.61529 -0.283982,1.87743 0,1.26214 0.276094,1.88532 0.276093,0.6153 0.859833,0.6153 0.425973,0 0.694178,-0.31554 0.268204,-0.31553 0.347088,-0.9466 0.110438,-0.0158 0.165656,-0.0158 0.283982,0 0.48908,0.14199 0.212986,0.14199 0.212986,0.38653 0,0.34709 -0.283982,0.59952 -0.283981,0.25243 -0.741507,0.38653 -0.449638,0.12621 -0.946606,0.12621 z"
         style="font-style:normal;font-variant:normal;font-weight:900;font-stretch:normal;font-family:'Arima Madurai';-inkscape-font-specification:'Arima Madurai Heavy';fill:#ffffff;fill-opacity:1;stroke:none;stroke-width:2;stroke-miterlimit:4;stroke-dasharray:none;stroke-opacity:1"
         id="path6096" />
      <path
         d="m 17.028666,272.09124 q -0.907164,0 -1.419908,-0.56007 -0.512745,-0.56797 -0.512745,-1.57768 0,-1.0176 0.504856,-1.58556 0.512745,-0.56797 1.427797,-0.56797 0.907164,0 1.41202,0.56797 0.512745,0.56796 0.512745,1.58556 0,1.00971 -0.512745,1.57768 -0.504856,0.56007 -1.41202,0.56007 z m 0,-0.35498 q 0.82828,0 0.82828,-1.78277 0,-1.79855 -0.82828,-1.79855 -0.425972,0 -0.63107,0.44964 -0.205098,0.44964 -0.205098,1.34891 0,0.89139 0.205098,1.34103 0.205098,0.44174 0.63107,0.44174 z"
         style="font-style:normal;font-variant:normal;font-weight:900;font-stretch:normal;font-family:'Arima Madurai';-inkscape-font-specification:'Arima Madurai Heavy';fill:#ffffff;fill-opacity:1;stroke:none;stroke-width:2;stroke-miterlimit:4;stroke-dasharray:none;stroke-opacity:1"
         id="path6098" />
      <path
         d="m 23.367349,270.86854 q 0.02366,0.65474 0.157768,0.99394 -0.260317,0.22876 -0.591629,0.22876 -0.252428,0 -0.418084,-0.14199 -0.165656,-0.14199 -0.165656,-0.38653 v -2.01154 q -0.0079,-0.63896 -0.134103,-0.93871 -0.126214,-0.29976 -0.465414,-0.29976 -0.378642,0 -0.615294,0.46541 -0.236651,0.45753 -0.236651,1.34103 0,0.86772 0.02367,1.16748 0.02367,0.29187 0.141991,0.58374 -0.07888,0.0789 -0.236652,0.14988 -0.149879,0.071 -0.3392,0.071 -0.268205,0 -0.433861,-0.15777 -0.165656,-0.15776 -0.165656,-0.41808 v -2.53217 q -0.0079,-0.22087 -0.05522,-0.31554 -0.04733,-0.10254 -0.157767,-0.10254 -0.149879,0 -0.205098,0.0947 -0.09466,-0.15777 -0.09466,-0.32343 0,-0.23665 0.157768,-0.37864 0.165656,-0.14988 0.457526,-0.14988 0.362866,0 0.567963,0.23665 0.212987,0.22877 0.220875,0.69418 0.3392,-0.93872 1.31736,-0.93872 0.646847,0 0.954494,0.40231 0.315535,0.39442 0.315535,1.19115 z"
         style="font-style:normal;font-variant:normal;font-weight:900;font-stretch:normal;font-family:'Arima Madurai';-inkscape-font-specification:'Arima Madurai Heavy';fill:#ffffff;fill-opacity:1;stroke:none;stroke-width:2;stroke-miterlimit:4;stroke-dasharray:none;stroke-opacity:1"
         id="path6100" />
      <path
         d="m 28.233988,271.2393 q 0.102549,0.14988 0.102549,0.31553 0,0.24454 -0.165656,0.38653 -0.157768,0.14199 -0.457526,0.14199 -0.354978,0 -0.567964,-0.22876 -0.205098,-0.22876 -0.220875,-0.68629 -0.331311,0.93083 -1.285806,0.93083 -0.646847,0 -0.946605,-0.37075 -0.299759,-0.37076 -0.299759,-1.23059 v -1.46724 q 0,-0.59952 -0.149879,-1.00182 0.276093,-0.22877 0.58374,-0.22877 0.260317,0 0.418084,0.14199 0.165656,0.14199 0.165656,0.39442 l 0.0079,2.00365 q 0,0.6784 0.118326,0.97816 0.118325,0.29976 0.441749,0.29976 0.378642,0 0.607405,-0.4733 0.228763,-0.47331 0.228763,-1.37258 0,-0.86772 -0.02367,-1.15959 -0.02366,-0.29976 -0.149879,-0.59163 0.08677,-0.0789 0.236651,-0.14988 0.157768,-0.071 0.347089,-0.071 0.252428,0 0.418084,0.15777 0.173544,0.15777 0.173544,0.42597 l 0.0079,2.53217 q 0,0.22088 0.04733,0.31554 0.04733,0.0947 0.157768,0.0947 0.134102,0 0.205098,-0.0868 z"
         style="font-style:normal;font-variant:normal;font-weight:900;font-stretch:normal;font-family:'Arima Madurai';-inkscape-font-specification:'Arima Madurai Heavy';fill:#ffffff;fill-opacity:1;stroke:none;stroke-width:2;stroke-miterlimit:4;stroke-dasharray:none;stroke-opacity:1"
         id="path6102" />
      <path
         d="m 31.011315,267.79996 q 0.449638,0 0.725731,0.24454 0.283982,0.23665 0.283982,0.65474 0,0.29976 -0.181433,0.49697 -0.181433,0.19721 -0.457526,0.20509 -0.315535,0 -0.465415,-0.16565 0.08677,-0.14199 0.118326,-0.26032 0.03155,-0.11832 0.03155,-0.27609 0,-0.2051 -0.08677,-0.30765 -0.08677,-0.11044 -0.260317,-0.11044 -0.29187,0 -0.457526,0.46542 -0.165656,0.45752 -0.165656,1.37258 0,0.84405 0.02367,1.14381 0.02366,0.29187 0.141991,0.57585 -0.08677,0.0868 -0.236652,0.14988 -0.149879,0.071 -0.347088,0.0789 -0.24454,0 -0.418084,-0.15777 -0.173545,-0.15777 -0.173545,-0.42597 v -2.50062 q 0,-0.22087 -0.05522,-0.31554 -0.04733,-0.10254 -0.157768,-0.10254 -0.149879,0 -0.205098,0.0947 -0.09466,-0.15777 -0.09466,-0.32343 0,-0.23665 0.157768,-0.37864 0.165656,-0.14988 0.457526,-0.14988 0.347089,0 0.552187,0.21299 0.205098,0.21298 0.236651,0.63896 0.268205,-0.85984 1.033378,-0.85984 z"
         style="font-style:normal;font-variant:normal;font-weight:900;font-stretch:normal;font-family:'Arima Madurai';-inkscape-font-specification:'Arima Madurai Heavy';fill:#ffffff;fill-opacity:1;stroke:none;stroke-width:2;stroke-miterlimit:4;stroke-dasharray:none;stroke-opacity:1"
         id="path6104" />
      <path
         d="m 35.829143,270.84488 q 0.126214,0.0552 0.126214,0.21298 0,0.10255 -0.05522,0.23666 -0.149879,0.37864 -0.544298,0.59162 -0.394419,0.2051 -0.954494,0.2051 -0.915052,0 -1.451462,-0.56007 -0.53641,-0.56797 -0.53641,-1.59346 0,-1.00182 0.520633,-1.56978 0.520633,-0.56797 1.483016,-0.56797 0.702065,0 1.151703,0.31554 0.449638,0.30764 0.449638,0.87561 0,0.57585 -0.465415,0.89139 -0.465414,0.31553 -1.246364,0.31553 -0.504856,0 -0.780949,-0.0316 0.05522,0.68629 0.347088,0.98604 0.299759,0.29976 0.820392,0.29976 0.418084,0 0.709954,-0.16565 0.29187,-0.16566 0.425973,-0.44175 z m -1.451462,-2.68994 q -0.410196,0 -0.638959,0.44175 -0.228763,0.43386 -0.228763,1.20692 v 0.008 l 0.268205,0.008 q 0.489079,0 0.812503,-0.2051 0.331312,-0.2051 0.331312,-0.78884 0,-0.67051 -0.544298,-0.67051 z"
         style="font-style:normal;font-variant:normal;font-weight:900;font-stretch:normal;font-family:'Arima Madurai';-inkscape-font-specification:'Arima Madurai Heavy';fill:#ffffff;fill-opacity:1;stroke:none;stroke-width:2;stroke-miterlimit:4;stroke-dasharray:none;stroke-opacity:1"
         id="path6106" />
      <path
         d="m 40.130157,272.09913 q -0.92294,0 -1.396243,-0.30765 -0.473303,-0.31553 -0.473303,-0.8125 0,-0.25243 0.149879,-0.4102 0.149879,-0.16565 0.48908,-0.16565 0.141991,0 0.228763,0.0158 -0.02367,0.10254 -0.02367,0.21298 0,0.0789 0.01578,0.18932 0.05522,0.37864 0.347089,0.63896 0.29187,0.26032 0.812503,0.26032 0.386531,0 0.638959,-0.2051 0.252428,-0.21299 0.252428,-0.61529 0,-0.37865 -0.252428,-0.63107 -0.24454,-0.26032 -0.851945,-0.59952 -0.575852,-0.33131 -0.907164,-0.57585 -0.331312,-0.25243 -0.520633,-0.56797 -0.181433,-0.32342 -0.181433,-0.75728 0,-0.70996 0.520634,-1.04916 0.528521,-0.34708 1.341024,-0.34708 0.757285,0 1.214811,0.23665 0.457526,0.23665 0.457526,0.68629 0,0.21298 -0.126214,0.34709 -0.118326,0.12621 -0.402308,0.1341 -0.03155,0.008 -0.110437,0.008 -0.071,0 -0.181433,-0.0158 0.01578,-0.26032 -0.06311,-0.45753 -0.06311,-0.26031 -0.29187,-0.41808 -0.228763,-0.16566 -0.615293,-0.16566 -0.315536,0 -0.552187,0.15777 -0.228763,0.15777 -0.228763,0.52063 0,0.25243 0.110437,0.44964 0.110438,0.19721 0.370754,0.39442 0.260317,0.19721 0.741508,0.46541 0.473303,0.26032 0.788838,0.49697 0.315535,0.22877 0.528521,0.56008 0.212987,0.33131 0.212987,0.77306 0,0.43386 -0.228763,0.78884 -0.220875,0.34709 -0.686289,0.56007 -0.457527,0.2051 -1.128039,0.2051 z"
         style="font-style:normal;font-variant:normal;font-weight:900;font-stretch:normal;font-family:'Arima Madurai';-inkscape-font-specification:'Arima Madurai Heavy';fill:#ffffff;fill-opacity:1;stroke:none;stroke-width:2;stroke-miterlimit:4;stroke-dasharray:none;stroke-opacity:1"
         id="path6108" />
      <path
         d="m 44.653405,272.09124 q -0.907164,0 -1.419909,-0.56007 -0.512744,-0.56797 -0.512744,-1.57768 0,-1.0176 0.504856,-1.58556 0.512745,-0.56797 1.427797,-0.56797 0.907164,0 1.41202,0.56797 0.512745,0.56796 0.512745,1.58556 0,1.00971 -0.512745,1.57768 -0.504856,0.56007 -1.41202,0.56007 z m 0,-0.35498 q 0.82828,0 0.82828,-1.78277 0,-1.79855 -0.82828,-1.79855 -0.425973,0 -0.631071,0.44964 -0.205098,0.44964 -0.205098,1.34891 0,0.89139 0.205098,1.34103 0.205098,0.44174 0.631071,0.44174 z"
         style="font-style:normal;font-variant:normal;font-weight:900;font-stretch:normal;font-family:'Arima Madurai';-inkscape-font-specification:'Arima Madurai Heavy';fill:#ffffff;fill-opacity:1;stroke:none;stroke-width:2;stroke-miterlimit:4;stroke-dasharray:none;stroke-opacity:1"
         id="path6110" />
      <path
         d="m 49.027881,266.11974 q 0.567963,0 0.883498,0.18143 0.315536,0.18143 0.315536,0.51275 0,0.22876 -0.173545,0.37864 -0.165656,0.14199 -0.410195,0.14199 -0.315536,0 -0.457527,-0.15777 0.14988,-0.2051 0.14988,-0.40231 0,-0.17354 -0.07888,-0.25242 -0.07888,-0.0789 -0.24454,-0.0789 -0.228763,0 -0.331312,0.19721 -0.102549,0.18932 -0.126214,0.4733 -0.02367,0.28399 -0.02367,0.80462 h 0.149879 q 0.157768,0 0.48908,-0.008 0.331312,-0.0158 0.378642,-0.0237 l -0.0079,0.24454 q -0.0079,0.11833 -0.07888,0.18933 -0.071,0.0631 -0.181433,0.0631 h -0.749396 v 2.48484 q 0,0.59952 0.149879,0.99394 -0.260316,0.22876 -0.58374,0.22876 -0.252428,0 -0.418084,-0.14199 -0.165656,-0.14199 -0.165656,-0.38653 v -3.17902 h -0.071 q -0.315535,0 -0.473302,0.0237 l 0.0079,-0.24454 q 0.0079,-0.11833 0.07888,-0.18143 0.07888,-0.0631 0.189321,-0.0631 h 0.268205 v -0.15777 q 0,-1.64078 1.514569,-1.64078 z"
         style="font-style:normal;font-variant:normal;font-weight:900;font-stretch:normal;font-family:'Arima Madurai';-inkscape-font-specification:'Arima Madurai Heavy';fill:#ffffff;fill-opacity:1;stroke:none;stroke-width:2;stroke-miterlimit:4;stroke-dasharray:none;stroke-opacity:1"
         id="path6112" />
      <path
         d="m 51.728421,267.91829 q 0.165656,0 0.520634,-0.008 0.362865,-0.0158 0.410195,-0.0237 l -0.0079,0.24454 q -0.0079,0.11833 -0.07888,0.18933 -0.07099,0.0631 -0.181433,0.0631 H 51.68898 v 0.23665 2.26397 q 0,0.41808 0.362865,0.41808 0.09466,0 0.189321,-0.0237 0.102549,-0.0316 0.126214,-0.0868 0.102549,0.1341 0.102549,0.32342 0,0.24454 -0.228763,0.39442 -0.228763,0.14988 -0.607405,0.14988 -0.457526,0 -0.709954,-0.29187 -0.252429,-0.29187 -0.252429,-0.79673 v -2.58739 h -0.110437 q -0.323423,0 -0.473303,0.0237 l 0.0079,-0.24454 q 0.0079,-0.11833 0.07888,-0.18143 0.07888,-0.0631 0.189322,-0.0631 h 0.307646 v -0.52852 q 0,-0.24454 0.165656,-0.38653 0.165656,-0.14199 0.425973,-0.14199 0.189321,0 0.3392,0.071 0.14988,0.071 0.236652,0.15777 -0.102549,0.40231 -0.134103,0.82828 z"
         style="font-style:normal;font-variant:normal;font-weight:900;font-stretch:normal;font-family:'Arima Madurai';-inkscape-font-specification:'Arima Madurai Heavy';fill:#ffffff;fill-opacity:1;stroke:none;stroke-width:2;stroke-miterlimit:4;stroke-dasharray:none;stroke-opacity:1"
         id="path6114" />
      <path
         d="m 54.674855,272.09124 q -0.433861,0 -0.53641,-0.33131 l -0.970271,-3.21846 q -0.05522,-0.17354 -0.110437,-0.28398 -0.04733,-0.11833 -0.126214,-0.2051 0.189321,-0.23665 0.575851,-0.23665 0.24454,0 0.402308,0.10255 0.157768,0.10255 0.197209,0.29976 l 0.741508,3.1869 0.623182,-2.87926 q 0.03944,-0.18143 0.03944,-0.34708 0,-0.17355 -0.071,-0.25243 0.220874,-0.0947 0.662624,-0.11044 0.260316,0 0.449637,0.0868 0.189322,0.0789 0.236652,0.28398 l 0.725731,3.21846 0.638959,-2.87926 q 0.04733,-0.23665 0.04733,-0.34708 0,-0.14988 -0.071,-0.25243 0.141991,-0.0552 0.252429,-0.0789 0.110437,-0.0315 0.276093,-0.0315 0.29187,0 0.425973,0.10255 0.134102,0.10255 0.134102,0.33131 0,0.26032 -0.110437,0.53641 l -1.07282,3.15535 q -0.347089,0.14988 -0.694178,0.14988 -0.197209,0 -0.347088,-0.0789 -0.141991,-0.0789 -0.189321,-0.25243 l -0.702066,-2.93448 -0.694178,3.11591 q -0.354977,0.14988 -0.733619,0.14988 z"
         style="font-style:normal;font-variant:normal;font-weight:900;font-stretch:normal;font-family:'Arima Madurai';-inkscape-font-specification:'Arima Madurai Heavy';fill:#ffffff;fill-opacity:1;stroke:none;stroke-width:2;stroke-miterlimit:4;stroke-dasharray:none;stroke-opacity:1"
         id="path6116" />
      <path
         d="m 63.668592,271.19197 q 0.102549,0.14988 0.102549,0.32342 0,0.22876 -0.19721,0.38653 -0.197209,0.15777 -0.528521,0.15777 -0.378643,0 -0.591629,-0.24454 -0.212986,-0.25243 -0.24454,-0.8125 -0.220874,0.48119 -0.615293,0.77306 -0.394419,0.28398 -0.915052,0.28398 -0.465415,0 -0.749397,-0.24454 -0.283981,-0.24454 -0.283981,-0.68629 0,-0.50486 0.38653,-0.82828 0.386531,-0.32342 0.97816,-0.49697 0.512744,-0.14199 1.128038,-0.15777 v -0.19721 q 0,-0.67051 -0.157768,-0.98604 -0.157767,-0.31554 -0.544298,-0.31554 -0.252428,0 -0.410196,0.14988 -0.157767,0.14199 -0.157767,0.44175 0,0.41808 0.283981,0.58374 -0.08677,0.0868 -0.236651,0.1341 -0.141991,0.0473 -0.307647,0.0473 -0.362865,0 -0.575852,-0.20509 -0.205098,-0.2051 -0.205098,-0.52064 0,-0.46541 0.449638,-0.71784 0.449638,-0.26032 1.222699,-0.26032 0.87561,0 1.277918,0.40231 0.410196,0.40231 0.410196,1.30947 v 1.37258 q 0,0.41808 0.260316,0.41808 0.05522,0 0.118326,-0.0237 0.06311,-0.0316 0.102549,-0.0868 z m -2.516394,0.20509 q 0.228763,0 0.465415,-0.18932 0.236651,-0.18932 0.394419,-0.51274 0.157767,-0.33131 0.157767,-0.71784 -0.623182,0 -0.930828,0.17354 -0.220875,0.11044 -0.354978,0.29976 -0.126214,0.18932 -0.126214,0.43386 0,0.21299 0.09466,0.36287 0.102549,0.14987 0.299758,0.14987 z"
         style="font-style:normal;font-variant:normal;font-weight:900;font-stretch:normal;font-family:'Arima Madurai';-inkscape-font-specification:'Arima Madurai Heavy';fill:#ffffff;fill-opacity:1;stroke:none;stroke-width:2;stroke-miterlimit:4;stroke-dasharray:none;stroke-opacity:1"
         id="path6118" />
      <path
         d="m 66.38577,267.79996 q 0.449637,0 0.725731,0.24454 0.283981,0.23665 0.283981,0.65474 0,0.29976 -0.181433,0.49697 -0.181432,0.19721 -0.457526,0.20509 -0.315535,0 -0.465414,-0.16565 0.08677,-0.14199 0.118326,-0.26032 0.03155,-0.11832 0.03155,-0.27609 0,-0.2051 -0.08677,-0.30765 -0.08677,-0.11044 -0.260317,-0.11044 -0.29187,0 -0.457526,0.46542 -0.165656,0.45752 -0.165656,1.37258 0,0.84405 0.02367,1.14381 0.02366,0.29187 0.14199,0.57585 -0.08677,0.0868 -0.236651,0.14988 -0.149879,0.071 -0.347089,0.0789 -0.24454,0 -0.418084,-0.15777 -0.173544,-0.15777 -0.173544,-0.42597 v -2.50062 q 0,-0.22087 -0.05522,-0.31554 -0.04733,-0.10254 -0.157768,-0.10254 -0.149879,0 -0.205097,0.0947 -0.09466,-0.15777 -0.09466,-0.32343 0,-0.23665 0.157768,-0.37864 0.165656,-0.14988 0.457526,-0.14988 0.347088,0 0.552186,0.21299 0.205098,0.21298 0.236652,0.63896 0.268205,-0.85984 1.033378,-0.85984 z"
         style="font-style:normal;font-variant:normal;font-weight:900;font-stretch:normal;font-family:'Arima Madurai';-inkscape-font-specification:'Arima Madurai Heavy';fill:#ffffff;fill-opacity:1;stroke:none;stroke-width:2;stroke-miterlimit:4;stroke-dasharray:none;stroke-opacity:1"
         id="path6120" />
      <path
         d="m 71.203597,270.84488 q 0.126214,0.0552 0.126214,0.21298 0,0.10255 -0.05522,0.23666 -0.14988,0.37864 -0.544299,0.59162 -0.394419,0.2051 -0.954494,0.2051 -0.915052,0 -1.451462,-0.56007 -0.53641,-0.56797 -0.53641,-1.59346 0,-1.00182 0.520634,-1.56978 0.520633,-0.56797 1.483015,-0.56797 0.702066,0 1.151704,0.31554 0.449637,0.30764 0.449637,0.87561 0,0.57585 -0.465414,0.89139 -0.465415,0.31553 -1.246364,0.31553 -0.504857,0 -0.78095,-0.0316 0.05522,0.68629 0.347089,0.98604 0.299758,0.29976 0.820391,0.29976 0.418085,0 0.709955,-0.16565 0.29187,-0.16566 0.425972,-0.44175 z m -1.451462,-2.68994 q -0.410196,0 -0.638959,0.44175 -0.228763,0.43386 -0.228763,1.20692 v 0.008 l 0.268205,0.008 q 0.48908,0 0.812503,-0.2051 0.331312,-0.2051 0.331312,-0.78884 0,-0.67051 -0.544298,-0.67051 z"
         style="font-style:normal;font-variant:normal;font-weight:900;font-stretch:normal;font-family:'Arima Madurai';-inkscape-font-specification:'Arima Madurai Heavy';fill:#ffffff;fill-opacity:1;stroke:none;stroke-width:2;stroke-miterlimit:4;stroke-dasharray:none;stroke-opacity:1"
         id="path6122" />
    </g>
  </g>
</svg>
