<?xml version="1.0" encoding="UTF-8" standalone="no"?>
<!-- Created with Inkscape (http://www.inkscape.org/) -->

<svg
   xmlns:dc="http://purl.org/dc/elements/1.1/"
   xmlns:cc="http://creativecommons.org/ns#"
   xmlns:rdf="http://www.w3.org/1999/02/22-rdf-syntax-ns#"
   xmlns:svg="http://www.w3.org/2000/svg"
   xmlns="http://www.w3.org/2000/svg"
   xmlns:sodipodi="http://sodipodi.sourceforge.net/DTD/sodipodi-0.dtd"
   xmlns:inkscape="http://www.inkscape.org/namespaces/inkscape"
   width="64"
   height="64"
   viewBox="0 0 16.933333 16.933334"
   version="1.1"
   id="svg8"
   inkscape:version="0.92.0 r15299"
   sodipodi:docname="Favicon_web.svg">
  <defs
     id="defs2" />
  <sodipodi:namedview
     id="base"
     pagecolor="#ffffff"
     bordercolor="#666666"
     borderopacity="1.0"
     inkscape:pageopacity="0.0"
     inkscape:pageshadow="2"
     inkscape:zoom="5.6"
     inkscape:cx="26.312038"
     inkscape:cy="33.070121"
     inkscape:document-units="mm"
     inkscape:current-layer="layer1"
     showgrid="false"
     units="px"
     inkscape:window-width="2560"
     inkscape:window-height="1377"
     inkscape:window-x="-8"
     inkscape:window-y="-8"
     inkscape:window-maximized="1" />
  <metadata
     id="metadata5">
    <rdf:RDF>
      <cc:Work
         rdf:about="">
        <dc:format>image/svg+xml</dc:format>
        <dc:type
           rdf:resource="http://purl.org/dc/dcmitype/StillImage" />
        <dc:title></dc:title>
      </cc:Work>
    </rdf:RDF>
  </metadata>
  <g
     inkscape:label="Layer 1"
     inkscape:groupmode="layer"
     id="layer1"
     transform="translate(0,-280.06665)">
    <path
       style="opacity:1;fill:#ff9800;fill-opacity:1;stroke:none;stroke-width:2.11666656;stroke-linecap:round;stroke-linejoin:round;stroke-miterlimit:4;stroke-dasharray:none;stroke-opacity:1;paint-order:stroke fill markers"
       d="m 3.2494136,284.63293 c -0.4223441,0 -0.8040327,0.0712 -1.1446329,0.21291 -0.3378754,0.14169 -0.5977524,0.3388 -0.7803141,0.59221 -0.1798369,0.25068 -0.269751,0.53682 -0.269751,0.85835 0,0.61853 0.337624,1.11075 1.0133749,1.47588 0.2479569,0.13351 0.5846885,0.26979 1.0097575,0.40876 0.425069,0.13624 0.7191454,0.26688 0.8826333,0.39222 0.1615532,0.12117 0.2430343,0.29589 0.2449465,0.52348 -0.00192,0.0533 -0.00714,0.11007 -0.017053,0.16433 -0.031511,0.13927 -0.1070295,0.25347 -0.227893,0.3421 -0.1634879,0.11717 -0.3910917,0.1757 -0.6826456,0.1757 -0.7847429,0 -1.1771891,-0.32827 -1.1771891,-0.98495 H 0.87074754 c 0,0.3842 0.0978532,0.72182 0.29403886,1.01337 0.1989106,0.29156 0.486457,0.52198 0.8624797,0.69092 0.3760226,0.16621 0.7928028,0.24959 1.2505696,0.24959 0.6594019,0 1.1839008,-0.14614 1.5735474,-0.4377 0.3896466,-0.29427 0.5844603,-0.69889 0.5844603,-1.21387 0,-0.46322 -0.159205,-0.85003 -0.4780068,-1.16066 -0.318802,-0.31062 -0.8269054,-0.57102 -1.5244548,-0.78083 -0.3787476,-0.11444 -0.6662938,-0.23714 -0.8624797,-0.36793 -0.1934609,-0.13079 -0.2904215,-0.29282 -0.2904215,-0.48628 0,-0.20708 0.083384,-0.37334 0.2495972,-0.49868 0.1243286,-0.0958 0.2862092,-0.15569 0.4852417,-0.17983 4.871e-4,-5e-5 0.00106,5e-5 0.00155,0 0.063584,-0.007 0.1302898,-0.0106 0.2015382,-0.0109 0.038548,-1.2e-4 0.073106,0.003 0.1095539,0.005 0.036349,0.002 0.074282,0.002 0.1085207,0.007 0.013961,0.002 0.026186,0.005 0.039791,0.007 0.1936435,0.0311 0.353265,0.0997 0.4759399,0.20877 0.1716627,0.14986 0.2578655,0.36056 0.2578655,0.63304 h 1.2257647 c 0,-0.35695 -0.092732,-0.67536 -0.2780191,-0.95602 -0.1825617,-0.28065 -0.43962,-0.4975 -0.7720459,-0.65009 -0.3324257,-0.15531 -0.7112956,-0.23306 -1.1363648,-0.23306 z m 5.3133709,0 c -0.4959141,0 -0.931908,0.11759 -1.3079307,0.35192 -0.3732977,0.23161 -0.6608442,0.565 -0.8624794,1.00097 -0.2016356,0.43597 -0.3023074,0.94036 -0.3023074,1.51257 v 0.3638 c 3e-7,0.89646 0.2177386,1.6022 0.6537071,2.11719 0.4386929,0.51226 1.0395294,0.76842 1.8024739,0.76842 0.6975491,0 1.2590658,-0.18405 1.684135,-0.5519 0.427794,-0.36785 0.664746,-0.87224 0.711068,-1.51257 H 9.7151687 c -0.027248,0.3624 -0.1349663,0.63073 -0.3229777,0.80512 -0.1852863,0.17166 -0.4671956,0.25787 -0.845943,0.25787 -0.4196196,0 -0.7272721,-0.14845 -0.923458,-0.44546 -0.1934609,-0.297 -0.2904215,-0.76719 -0.2904215,-1.41025 v -0.44958 c 0.00545,-0.61581 0.1089401,-1.0696 0.3105754,-1.36116 0.2043602,-0.29428 0.5111202,-0.44131 0.9198406,-0.44131 0.3760226,0 0.6551131,0.0871 0.8376748,0.26148 0.1852866,0.17166 0.2930048,0.44986 0.3229776,0.83406 h 1.2262821 c -0.06539,-0.66486 -0.307984,-1.18142 -0.727604,-1.54926 -0.4196198,-0.36785 -0.9726807,-0.55191 -1.6593305,-0.55191 z m 5.3133715,0 c -0.422345,0 -0.804033,0.0712 -1.144633,0.21291 -0.337876,0.14169 -0.597753,0.3388 -0.780314,0.59221 -0.179837,0.25068 -0.269751,0.53682 -0.269751,0.85835 0,0.61853 0.337624,1.11075 1.013374,1.47588 0.247957,0.13351 0.584689,0.26979 1.009758,0.40876 0.425069,0.13624 0.719145,0.26688 0.882633,0.39222 0.163489,0.12262 0.245463,0.29963 0.245463,0.53123 0,0.21254 -0.08197,0.37879 -0.245463,0.49868 -0.163488,0.11717 -0.391092,0.1757 -0.682645,0.1757 -0.784743,0 -1.177189,-0.32827 -1.177189,-0.98495 h -1.2299 c 0,0.3842 0.09785,0.72182 0.29404,1.01337 0.19891,0.29156 0.486456,0.52198 0.862479,0.69092 0.376023,0.16621 0.792803,0.24959 1.25057,0.24959 0.659402,0 1.1839,-0.14614 1.573547,-0.4377 0.389647,-0.29427 0.584461,-0.69889 0.584461,-1.21387 0,-0.46322 -0.159206,-0.85003 -0.478008,-1.16066 -0.318801,-0.31062 -0.826905,-0.57102 -1.524454,-0.78083 -0.378748,-0.11444 -0.666294,-0.23714 -0.86248,-0.36793 -0.193461,-0.13079 -0.290421,-0.29282 -0.290421,-0.48628 0,-0.20708 0.08338,-0.37334 0.249597,-0.49868 0.166213,-0.12806 0.398937,-0.19172 0.698665,-0.19172 0.310628,0 0.551808,0.0763 0.72347,0.22893 0.171663,0.14986 0.257865,0.36056 0.257865,0.63304 h 1.225766 c 0,-0.35695 -0.09273,-0.67536 -0.27802,-0.95602 -0.182562,-0.28065 -0.43962,-0.4975 -0.772046,-0.65009 -0.332425,-0.15531 -0.711295,-0.23306 -1.136364,-0.23306 z"
       id="text4487"
       inkscape:connector-curvature="0" />
    <path
       style="color:#000000;font-style:normal;font-variant:normal;font-weight:normal;font-stretch:normal;font-size:medium;line-height:normal;font-family:sans-serif;font-variant-ligatures:normal;font-variant-position:normal;font-variant-caps:normal;font-variant-numeric:normal;font-variant-alternates:normal;font-feature-settings:normal;text-indent:0;text-align:start;text-decoration:none;text-decoration-line:none;text-decoration-style:solid;text-decoration-color:#000000;letter-spacing:normal;word-spacing:normal;text-transform:none;writing-mode:lr-tb;direction:ltr;text-orientation:mixed;dominant-baseline:auto;baseline-shift:baseline;text-anchor:start;white-space:normal;shape-padding:0;clip-rule:nonzero;display:inline;overflow:visible;visibility:visible;opacity:1;isolation:auto;mix-blend-mode:normal;color-interpolation:sRGB;color-interpolation-filters:linearRGB;solid-color:#000000;solid-opacity:1;vector-effect:none;fill:#ff9800;fill-opacity:1;fill-rule:nonzero;stroke:none;stroke-width:1.05833328;stroke-linecap:butt;stroke-linejoin:miter;stroke-miterlimit:4;stroke-dasharray:none;stroke-dashoffset:0;stroke-opacity:1;color-rendering:auto;image-rendering:auto;shape-rendering:auto;text-rendering:auto;enable-background:accumulate"
       d="m 0.95507812,291.375 v 1.05859 H 15.978516 V 291.375 Z"
       id="path4509"
       inkscape:connector-curvature="0" />
  </g>
</svg>
